<?xml version="1.0" encoding="utf-8"?>
<!-- Generator: Adobe Illustrator 19.0.0, SVG Export Plug-In . SVG Version: 6.00 Build 0)  -->
<svg version="1.1" id="Layer_1" xmlns="http://www.w3.org/2000/svg" xmlns:xlink="http://www.w3.org/1999/xlink" x="0px" y="0px"
	 viewBox="0 0 177 177" style="enable-background:new 0 0 177 177;" xml:space="preserve">
<style type="text/css">
	.st0{fill:#EE8070;}
	.st1{fill:#FFFFFF;}
	.st2{fill:none;stroke:#EE8070;stroke-width:2;stroke-miterlimit:10;}
</style>
<g id="XMLID_3_">
	<circle id="XMLID_14_" class="st0" cx="88.5" cy="88.5" r="80.5"/>
	<g id="XMLID_10_">
		<path id="XMLID_13_" class="st1" d="M31.4,99.2c1.3-2.9,3.6-4.8,6-6.6c1.6-1.3,3.3-2.4,5-3.7c-0.8-2.1-1.5-4.3-2.3-6.4
			c-0.9-2.5-0.8-5-0.9-7.6c0-5.1,2.7-8.6,6-11.9c0.2-0.2,0.4-0.4,0.5-0.7c1.9-4.7,5.6-7.2,10.4-7.9c3-0.4,5.9-1.5,8.8-2.2
			c2.3-0.5,4.6-0.5,6.8,0.1c3.3,0.8,5.5,2.9,6.5,6.1c0.4,1.3,0,2.2-1,2.5c-1,0.3-1.8-0.2-2.2-1.4c-0.8-2.4-2.5-3.7-5.1-4
			c-2.4-0.3-4.6-0.1-6.9,0.9c1.5,1.6,3.3,2.4,5.3,3c2.3,0.7,4.6,1.5,6.8,2.3c0.5,0.2,1,0.5,1.5,0.8c3.9,2.1,5.3,4.2,4.8,9.6
			c-0.1,0.8,0,1.4,0.4,2.1c1.7,2.7,1.2,5.5-0.2,8.2c-0.2,0.5-0.6,0.9-1.1,1.6c0.9,0.1,1.6,0.3,2.3,0.3c1,0,2-0.3,3-0.4
			c1.3-0.2,2.1,0.4,2.3,1.4c0.1,1.1-0.5,1.8-1.8,2c-1.3,0.2-2.6,0.5-3.9,0.6c-0.7,0-1.4-0.1-2-0.4c-1-0.4-2-1-3-1.5
			c-1.7-0.9-1.8-2.1-0.4-3.4c1.2-1.1,2-2.4,2.4-4c0.3-1.7-0.1-2.8-1.6-3.7c-2.3-1.4-4.8-2-7.3-2.4c-4.5-0.7-9-1.2-13.5-2
			c-2.1-0.4-4.2-1.3-6.2-2.1c-1.2-0.5-1.6-1.5-1.1-2.4c0.4-0.9,1.5-1.2,2.6-0.7c3.3,1.7,7,2,10.6,2.6c3.9,0.6,7.8,1.2,11.7,1.9
			c1.2,0.2,2.4,0.7,3.6,1.1c0.5-2.1-0.1-3.6-1.9-4.8c-2.7-1.8-5.7-2.6-8.8-3.4c-3-0.8-5.5-2.3-7.4-4.7c-0.2-0.3-0.8-0.6-1.1-0.5
			c-4.5,0.4-8.3,1.9-10.1,6.6c-0.2,0.4-0.6,0.8-0.9,1.2c-1.3,1.5-2.6,3-3.8,4.6c-0.5,0.6-0.8,1.4-1,2.1c-0.9,2.7,0.1,4.8,2.9,5.3
			c2.2,0.4,4.4,0.6,6.6,0.5c4.6-0.1,9.3-0.4,13.9-0.5c2.7,0,5.4,0.5,8,1.5c0.4,0.2,0.8,0.3,1.2,0.5c0.7,0.5,1,1.2,0.6,2.1
			c-0.4,0.9-1.1,1.3-2,1c-6-2.4-12.3-1.6-18.5-1.3c-3.1,0.2-6.2,0-9.3-0.1c-1.1-0.1-2.2-0.6-3.4-0.9c0.1,0.4,0.2,0.9,0.4,1.3
			c1.1,3.2,2.2,6.4,3.4,9.6c0.6,1.6,0.5,3.1,0.1,4.7c-0.2,1-0.4,2-0.5,3c0,0.3,0.3,0.9,0.6,1c1.8,0.5,2.9,1.6,3.6,3.3
			c0.7,1.6,1.5,3.2,2.2,4.9c0.4,1,0.9,1.2,1.8,0.6c3.8-3.1,7.2-6.5,10.4-10.2c0.9-1,0.4-2.2,0.3-3.3c-0.1-0.5-0.3-0.9-0.3-1.4
			c-0.1-0.9,0.3-1.5,1.1-1.8c0.9-0.3,1.7,0,2,0.8c1,2.5,1.7,5.1-0.3,7.5c-1.3,1.7-2.8,3.2-4.2,4.9c-0.4,0.4-0.7,0.9-0.9,1.4
			c-0.5,1.8-1,3.6-1.5,5.7c4.5-1.9,8.5-4.1,11.8-7.4c-0.9,0.1-1.9,0.2-2.8,0.3c-1.3,0.1-2.1-0.4-2.2-1.5c-0.1-1.1,0.5-1.8,1.8-2
			c2-0.2,3.9-0.4,5.9-0.6c0.7,0,1.1-0.3,1.3-0.9c0.3-0.7,0.6-1.3,0.8-2c0.4-1,1.3-1.5,2.2-1.2c0.9,0.3,1.4,1.3,1,2.3
			c-0.5,1.4-1.1,2.7-1.9,3.9c-2.7,4.1-6.4,7-10.6,9.2c-2.9,1.5-5.9,2.7-8.8,4c-0.7,0.3-1.5,0.4-2.1-0.2c-0.7-0.6-0.6-1.4-0.4-2.2
			c0.3-1.2,0.6-2.4,1-4c-0.7,0.5-1.1,0.9-1.5,1.2c-2.6,2-5.9,1-7-2c-0.7-1.8-1.6-3.6-2.4-5.4c-0.1-0.3-0.5-0.5-0.9-0.7
			c-0.6-0.3-1.3-0.5-1.9-0.9c-0.9-0.5-1.5-1.4-1.4-2.5c0.2-1.8,0.5-3.5,0.7-5.3c0.1-0.6,0.1-1.1,0.2-1.7c-0.2,0-0.3-0.1-0.3,0
			c-2.6,2.1-5.3,4.3-7.9,6.5c-0.8,0.7-0.8,1.5-0.3,2.3c0.6,1,1.2,2.1,2.1,2.9c1.9,1.9,4,3.6,6.1,5.5c0.4-1,0.8-1.7,1.1-2.4
			c0.5-1.1,1.4-1.5,2.3-1.1c1,0.4,1.3,1.3,0.8,2.5c-1.4,3.7-2.8,7.3-4,11c-0.6,1.9-0.9,3.9-1.3,5.9c-0.1,0.5-0.1,0.9-0.1,1.4
			c0,1.7,0.6,2.6,2.2,2.7c2.2,0.2,4.5,0.2,6.6-0.1c6.8-1,13.3-3.4,19.6-6c4.4-1.8,8.7-3.7,13-5.7c2.7-1.3,5.3-1.7,8.3-1.1
			c7.8,1.6,15.8,2.1,23.8,2c7.8-0.1,15.7-0.4,23.5-0.6c0.3,0,0.5,0,0.8,0c1.1,0,1.8,0.7,1.8,1.7c0,0.9-0.7,1.7-1.7,1.7
			c-1.9,0.2-3.9,0.3-5.8,0.4c-11.2,0.5-22.4,0.7-33.6-0.4c-3.3-0.3-6.6-0.8-9.9-1.4c-1.8-0.3-3.4-0.2-5.1,0.6
			c-4.1,1.9-8.1,3.8-12.3,5.5c-6.4,2.7-12.9,5.1-19.7,6.5c-3.1,0.6-6.2,1.1-9.3,0.6c-4-0.6-5.8-2.9-5.6-6.9c0.3-4.3,1.6-8.3,3-12.3
			c0.3-0.9,0.2-1.3-0.6-1.8c-1.6-1.1-3.1-2.3-4.6-3.6c-2.4-2.1-4.4-4.4-5.3-7.6C31.4,100.4,31.4,99.8,31.4,99.2z"/>
		<path id="XMLID_12_" class="st1" d="M113.7,83c2.8,0,5.6,0,8.5,0c0.7,0,1.4,0,2,0c1.1,0.1,1.8,0.8,1.8,1.7c0,1-0.8,1.7-1.9,1.7
			c-3.7-0.1-7.5-0.1-11.2-0.2c-1,0-1.5,0.2-1.6,1.3c-0.1,1.4-0.8,2.6-1.8,3.5c-1.6,1.6-3.3,3.1-4.9,4.7c-2.4,2.2-5,1.7-6.4-1.4
			c-0.3,0.2-0.6,0.4-0.9,0.6c-2.4,1.3-4.8,2.6-7.2,3.7c-0.6,0.3-1.4,0.4-2.1,0.4c-1.7,0.1-3.2-1.1-3-2.9c0.1-1.3,0.4-2.7,1-3.9
			c2.2-4.7,5.9-8.1,10.3-10.7c0.8-0.5,1.7-1,2.6-1.3c1.5-0.5,2.5-1.6,3.4-2.8c5.6-7.9,11.3-15.7,16.9-23.5c0,0,0-0.1,0.1-0.1
			c1-1.4,1.9-1.7,2.8-1c0.9,0.7,0.9,1.7,0,3c-6.1,8.5-12.2,17-18.4,25.4c-0.4,0.6-1.1,1.1-1.8,1.4c-4.2,1.9-7.9,4.2-10.7,7.9
			c-1.1,1.5-1.9,3.2-2.8,4.8c0.1,0.1,0.2,0.2,0.3,0.2c0.3-0.1,0.5-0.1,0.8-0.2c3.3-1.3,6.2-3.1,8.9-5.3c1.4-1.1,2.8-2.3,4.1-3.5
			c1.2-1.1,2.2-1.2,2.9-0.5c0.8,0.7,0.7,1.6-0.3,3c-1.1,1.5-2.2,2.9-3.1,4.5c0.2-0.1,0.4-0.2,0.5-0.3c1.4-1.3,2.7-2.6,4.2-3.9
			c1-0.9,1.6-2,1.7-3.3c0.1-2.4,1.2-4.1,2.9-5.7c9.2-9.1,18.3-18.3,27.4-27.5c0.2-0.2,0.3-0.4,0.5-0.5c0.7-0.6,1.7-0.6,2.4,0
			c0.6,0.6,0.7,1.7,0.1,2.4c-0.6,0.7-1.4,1.4-2,2.1c-8.4,8.4-16.7,16.8-25.1,25.2c-0.2,0.2-0.5,0.5-0.7,0.8
			C113.6,82.8,113.7,82.9,113.7,83z"/>
		<path id="XMLID_11_" class="st1" d="M113.9,104.9c-1.7-0.1-3.4-0.2-5.1-0.3c-1.3-0.1-2.4-0.8-3.3-1.9c-1.8-2-1.8-3.8,0-5.7
			c2.9-3.1,6.3-5.5,10-7.5c2.5-1.4,5.3-1,8-0.6c0.7,0.1,1.2-0.1,1.7-0.5c4.3-4.1,8.7-8.1,13.1-12.2c1.4-1.3,2.3-1.4,3.1-0.5
			c0.8,0.9,0.5,1.8-0.8,3c-4.6,4.3-9.2,8.5-13.8,12.9c-0.8,0.8-1.7,1.1-2.8,0.9c-0.9-0.1-1.8-0.2-2.7-0.3c-2.2-0.3-4.2,0.1-6,1.4
			c-2.2,1.7-4.5,3.4-6.7,5.2c-0.4,0.3-0.9,1.1-0.7,1.2c0.4,0.5,1,1.1,1.5,1.2c1.9,0.2,3.9,0.3,5.8,0.2c3.6-0.2,7.2-0.8,10.1-3
			c4.1-3.1,8.7-5.3,13.1-8.1c0.2-0.1,0.4-0.3,0.7-0.4c1.1-0.6,2.1-0.4,2.6,0.5c0.5,0.9,0.2,1.8-0.8,2.4c-1.9,1.1-3.9,2.2-5.8,3.4
			c-2.5,1.6-5.1,3.1-7.5,4.8C123.4,103.8,118.8,104.9,113.9,104.9z"/>
	</g>
	<circle id="XMLID_9_" class="st2" cx="88.5" cy="88.5" r="86.4"/>
</g>
</svg>
