<?xml version="1.0" encoding="utf-8"?>
<!-- Generator: Adobe Illustrator 19.0.0, SVG Export Plug-In . SVG Version: 6.00 Build 0)  -->
<svg version="1.1" id="Layer_1" xmlns="http://www.w3.org/2000/svg" xmlns:xlink="http://www.w3.org/1999/xlink" x="0px" y="0px"
	 viewBox="0 0 177 177" style="enable-background:new 0 0 177 177;" xml:space="preserve">
<style type="text/css">
	.st0{fill:#EE8070;}
	.st1{fill:#FFFFFF;}
	.st2{fill:none;stroke:#EE8070;stroke-width:2;stroke-miterlimit:10;}
</style>
<g id="XMLID_3_">
	<circle id="XMLID_46_" class="st0" cx="88.5" cy="88.5" r="80.5"/>
	<g id="XMLID_10_">
		<path id="XMLID_13_" class="st1" d="M39.4,122.3c2.2,0,4.4,0.1,6.6,0.1c1.4,0,2.7,0,4.4,0c-0.5-0.4-0.7-0.6-1-0.8
			c-6.1-4.9-8.3-13.2-5.6-20.5c0.4-1.1,1.1-1.8,2.3-1.8c1.6,0,3.3,0,5,0c0.2-0.7,0.4-1.7,0.7-2.6c1.3-4.4,4-7.8,7.9-10.2
			c0.9-0.6,1.7-0.6,2.5,0c1.2,0.9,2.4,1.8,3.7,2.8c0-0.4,0-0.7,0-1c0-5.5,0-11,0-16.5c0-1.8,0.4-2.2,2.2-2.4
			c6.2-0.9,12.4-1.9,18.6-2.9c0.5-0.1,0.9-0.1,0.8-0.7c-0.1-0.6,0.4-1.3-0.6-1.7c-3.1-1-5.1-3.1-5.8-6.3c-0.6-2.9,0.3-5.6,1.5-8.2
			c1.3-2.8,3.1-5.3,5.2-7.6c0.9-1,1.9-1.1,2.7-0.2c3.2,3.5,5.9,7.3,6.8,12.1c1,4.8-1.2,8.6-5.8,10.2c-0.7,0.2-0.7,0.3-0.5,1.7
			c2.2-0.3,4.3-0.6,6.5-1c4.2-0.6,8.4-1.3,12.6-1.9c1.5-0.2,2.3,0.4,2.3,1.9c0,3.4,0,6.7,0,10.1c0,0.3,0,0.6,0,1.1
			c0.4,0,0.8,0,1.2,0c4.5,0,9.1,0,13.6,0c6.8,0.1,12,5.4,11.7,12c-0.1,3.6-1.7,6.6-4.6,8.8c-0.3,0.2-0.6,0.4-0.9,0.7
			c3.1,2,5,4.8,5.5,8.5c0.5,3.7-0.7,6.8-3.3,9.7c0.7,0,1.1,0,1.6,0c1.2,0.1,1.8,0.7,1.8,1.9c0,2,0,4,0,6c0,1.4-0.6,2-2,2
			c-0.4,0-0.8,0-1.3,0c0,1.4,0,2.8,0,4.2c0,2-0.5,2.5-2.5,2.5c-1.7,0-3.4,0-5.1,0c-1.2,0-2-0.4-2.5-1.6c-0.7-1.5-1.4-3-2.2-4.4
			c-0.2-0.3-0.6-0.6-0.9-0.6c-3.1,0-6.3,0-9.4,0c-0.2,0-0.3,0.1-0.6,0.1c0,1.5,0,2.9,0,4.4c0,1.6-0.6,2.2-2.2,2.2
			c-20.6,0-41.3,0-61.9,0c-1.1,0-1.8-0.4-2.2-1.4c-0.7-1.6-1.5-3.1-2.3-4.6c-0.2-0.5-0.5-0.7-1.1-0.7c-1.1,0.1-2.1,0.1-3.2,0.1
			C39.4,124.7,39.4,123.5,39.4,122.3z M69.2,72.5c0,0.5,0,0.9,0,1.3c0,6.5,0,13,0,19.5c0,0.4-0.1,0.9,0,1.2c0.5,1.7,1.1,3.3,1.6,4.7
			c1.5,0,3.1,0,4.6,0c1.4,0,2.1,0.6,2.6,2c2.6,7.3,0.5,15.3-5.5,20.3c-0.3,0.2-0.6,0.5-0.9,0.7c0,0.1,0,0.2,0.1,0.2
			c3.6,0,7.1,0,10.6,0c0,1.2,0,2.2,0,3.3c-1.1,0-2.1,0-3.2,0c-0.3,0-0.7,0.1-0.8,0.3c-0.5,0.9-1,1.9-1.5,2.9c4.2,0,8.2,0,12.1,0
			c0-1.1,0-2.1,0-3.2c-0.4,0-0.8,0-1.1,0c-1.6,0-2.1-0.6-2.1-2.2c0-1.9,0-3.8,0-5.7c0-1.5,0.6-2,2.1-2.1c0.4,0,0.8,0,1.3,0
			c-3.2-3.7-4.3-7.6-2.7-12.1c1.5-4.4,4.8-6.9,9.4-7.7c-0.2-0.3-0.4-0.5-0.6-0.7c-4.8-5.5-3.5-13.8,2.7-17.6c2.4-1.4,5-1.7,7.7-1.6
			c1.1,0,2.1,0,3.2,0c0-3.3,0-6.4,0-9.6C95.6,68.4,82.5,70.5,69.2,72.5z M113.9,105.8c-0.4,0-0.8,0-1.1,0c-3.4,0-6.8,0-10.2,0
			c-1.2,0-1.9,0.7-1.9,1.6c0,1,0.7,1.7,1.8,1.7c5.5,0,11,0,16.5,0c2.7,0,4.8-2.2,4.8-4.8c0-2.7-2-5-4.7-5c-7.4,0-14.8-0.1-22.2,0
			c-4.2,0.1-7.7,3.7-7.8,7.9c-0.1,4.7,3.4,8.5,8,8.6c10.1,0.1,20.2,0,30.3,0c0.4,0,0.9,0,1.3-0.1c4.5-0.9,7.4-5.1,6.6-9.7
			c-0.8-4.4-5-7.3-9.5-6.7c0.4,1.3,1.1,2.6,1.2,4c0.6,5-3.1,9.1-8.1,9.2c-5.5,0.1-11.1,0-16.6,0c-0.4,0-0.8,0-1.2-0.1
			c-2.5-0.6-4-2.9-3.7-5.5c0.3-2.3,2.3-4.2,4.8-4.3c2.6,0,5.1,0,7.7,0c1.3,0,2.6,0,4,0C113.9,103.6,113.9,104.7,113.9,105.8z
			 M117.2,86c-0.4,0-0.7,0-1.1,0c-3.4,0-6.9,0-10.3,0c-1.1,0-1.8,0.6-1.8,1.6c0,1,0.7,1.7,1.7,1.7c5.6,0,11.1,0.1,16.7,0
			c2.8,0,4.7-2.3,4.7-5c0-2.7-2.1-4.8-4.8-4.8c-6.2,0-12.5-0.1-18.7,0c-4.5,0.1-7.9,3.9-7.9,8.3c0,4.4,3.6,8.1,8.1,8.2
			c7.9,0.1,15.7,0.1,23.6,0c3.5,0,6.1-1.9,7.4-5.2c1.3-3.3,0.7-6.3-1.7-8.9c-1-1.1-2.3-1.9-3.9-2.2c0.1,0.2,0.1,0.2,0.1,0.3
			c3.5,5.5-0.4,12.9-7.6,12.7c-5.2-0.1-10.3,0-15.5,0c-0.7,0-1.4-0.1-2.1-0.3c-2.3-0.8-3.7-3.1-3.3-5.5c0.4-2.3,2.3-4.1,4.7-4.1
			c3.8,0,7.5,0,11.3,0c0.1,0,0.3,0.1,0.4,0.1C117.2,83.9,117.2,84.9,117.2,86z M61.6,122.4c9.6-0.4,16.2-9.6,13.7-18.9
			c-0.2-0.7-0.5-1-1.2-1c-9.5,0.1-16.6,9.1-14.4,18.4C60,122.4,60,122.4,61.6,122.4z M58.8,107.6c-3.1-3.4-6.9-5.1-11.4-5
			c-0.3,0-0.7,0.4-0.8,0.7c-0.9,3-0.9,5.9,0.1,8.9c1.6,4.7,4.8,7.9,9.6,9.6C55.8,114.1,56.1,112.7,58.8,107.6z M89.1,122.3
			c15.5,0,30.9,0,46.3,0c0-1.1,0-2.1,0-3.1c-15.5,0-30.9,0-46.3,0C89.1,120.3,89.1,121.3,89.1,122.3z M54.4,100.2
			c2.3,1.6,4.5,3,6.5,4.4c1.9-1.2,3.7-2.5,5.7-3.6c0.7-0.4,0.9-0.8,0.7-1.5c-0.7-3.9-2.6-7-5.8-9.4c-0.5-0.4-0.8-0.3-1.3,0
			C56.9,92.7,54.9,96.1,54.4,100.2z M89.1,45.4c-0.5,0.6-1,1.2-1.4,1.8c-1.8,2.6-3.4,5.3-3.6,8.5c-0.2,2.3,1.2,4.4,3.3,5
			c0-1,0-1.9,0-2.8c1.1,0,2.2,0,3.3,0c0,1,0,1.9,0,2.8c2.1-0.6,3.5-2.7,3.3-5C93.7,51.7,91.5,48.5,89.1,45.4z M47.1,125.8
			c0.5,1,1,2,1.5,2.9c0.1,0.2,0.5,0.3,0.7,0.3c7.8,0,15.5,0,23.3,0c0.2,0,0.6-0.1,0.7-0.3c0.5-0.9,1-1.9,1.5-2.9
			C65.5,125.8,56.4,125.8,47.1,125.8z M100.1,129c3,0,5.9,0,8.8,0c0-1.1,0-2.1,0-3.3c-2.3,0-4.5,0-6.7,0c-0.2,0-0.5,0.2-0.6,0.4
			C101,127,100.6,127.9,100.1,129z M126.6,125.8c0.5,1.1,1,2,1.5,2.9c0.1,0.2,0.3,0.4,0.5,0.4c1.2,0,2.4,0,3.6,0c0-1.2,0-2.2,0-3.3
			C130.3,125.8,128.5,125.8,126.6,125.8z M92.4,129c1.2,0,2.3,0,3.5,0c0.2,0,0.4-0.1,0.5-0.2c0.5-1,1-2,1.5-3c-2,0-3.7,0-5.5,0
			C92.4,126.9,92.4,127.9,92.4,129z"/>
		<path id="XMLID_12_" class="st1" d="M72.6,76.1c1.1,0,2.1,0,3.2,0c0,4.4,0,8.7,0,13.1c-1,0-2.1,0-3.2,0
			C72.6,84.9,72.6,80.5,72.6,76.1z"/>
		<path id="XMLID_11_" class="st1" d="M72.6,92.7c1.1,0,2.1,0,3.2,0c0,1.1,0,2.1,0,3.2c-1,0-2.1,0-3.2,0
			C72.6,94.8,72.6,93.8,72.6,92.7z"/>
	</g>
	<circle id="XMLID_9_" class="st2" cx="88.5" cy="88.5" r="86.4"/>
</g>
</svg>
