<?xml version="1.0" encoding="utf-8"?>
<!-- Generator: Adobe Illustrator 19.0.0, SVG Export Plug-In . SVG Version: 6.00 Build 0)  -->
<svg version="1.1" id="Layer_1" xmlns="http://www.w3.org/2000/svg" xmlns:xlink="http://www.w3.org/1999/xlink" x="0px" y="0px"
	 viewBox="0 0 177 177" style="enable-background:new 0 0 177 177;" xml:space="preserve">
<style type="text/css">
	.st0{fill:#EE8070;}
	.st1{fill:#FFFFFF;}
	.st2{fill:none;stroke:#EE8070;stroke-width:2;stroke-miterlimit:10;}
</style>
<g id="XMLID_3_">
	<circle id="XMLID_40_" class="st0" cx="88.5" cy="88.5" r="80.5"/>
	<g id="XMLID_10_">
		<path id="XMLID_39_" class="st1" d="M123,136.3c-1.9-0.6-3.8-1.3-5.7-1.9c-9.8-3.1-19.5-6.3-29.3-9.3c-1.3-0.4-2.9-0.2-4.3-0.4
			c-0.7-0.1-1.4-0.2-2.1-0.5c-9.6-4.5-19.2-9.1-28.8-13.7c-0.5-0.2-1-0.3-1.6-0.3c-2.3,0-4.6,0-6.9,0c-0.9,0-1.6-0.2-2.1-0.9
			c0-0.4,0-0.7,0-1.1c0.5-0.7,1.2-0.9,2.1-0.9c2.4,0,4.9,0,7.3,0c0.7,0,1.4,0.2,2,0.5c9.6,4.6,19.3,9.1,28.9,13.7
			c0.4,0.2,0.9,0.3,1.4,0.3c2.6,0,5.2,0.3,7.7-0.3c2.5-0.6,4.7-2,7-3.1c9.6-4.1,18.5-9.4,27.7-14.2c0.2-0.1,0.3-0.2,0.5-0.4
			c-2.2-1.7-4.5-2-7.1-1.2c-0.3,0.1-0.5,0.2-0.8,0.3c-0.9,0.3-1.6,0-1.9-0.8c-0.3-0.7,0-1.5,0.8-1.9c1.8-0.9,3.7-1.2,5.6-0.9
			c2.6,0.3,4.8,1.5,6.5,3.5c1,1.2,0.9,2.1-0.5,2.8c-11.4,6.1-22.8,12.4-34.8,17.5c-0.2,0.1-0.5,0.2-1,0.5c9.7,3.1,19.2,6.1,28.6,9.2
			c0.4-2-0.7-3.9-2.6-4.6c-1.3-0.5-2.7-0.9-4-1.4c-0.7-0.2-1.1-0.8-1-1.5c0.1-0.7,0.5-1.1,1.2-1.3c0.3,0,0.5,0,0.8,0.1
			c1.4,0.5,2.9,0.9,4.3,1.5c3.6,1.4,5.3,5.5,3.9,9.1c-0.2,0.5-0.7,1-1,1.4C123.8,136.3,123.4,136.3,123,136.3z"/>
		<path id="XMLID_38_" class="st1" d="M42.3,92.2c0.5-0.3,1-0.8,1.6-1c4.5-1.6,9.1-2.8,13.9-3.3c0.7-0.1,1.4,0,1.8,0.7
			c0.6,0.9,0,2-1.2,2.2c-2.7,0.5-5.4,0.9-8.1,1.5c-1.9,0.4-3.7,1.1-5.5,1.7c-1.1,0.4-1.9,0.3-2.5-0.7C42.3,92.9,42.3,92.6,42.3,92.2
			z"/>
		<path id="XMLID_37_" class="st1" d="M106.1,47c-2.3,3-4.4,5.9-6.5,8.8c-0.2,0.3-0.4,0.6-0.6,0.8c-0.6,0.5-1.2,0.6-1.8,0.1
			c-0.6-0.4-0.8-1.1-0.5-1.8c0.1-0.2,0.2-0.4,0.4-0.6c2.6-3.3,5.1-6.7,7.7-10c0.9-1.2,1.8-1.2,2.8,0c4.9,6,9.6,12.1,13.2,19
			c1.2,2.3,2.3,4.6,2.6,7.1c0.8,6-1.3,11.1-5.7,15c-5.1,4.5-11.2,5.7-17.6,3.3c-6.5-2.5-10.1-7.4-11.2-14.2
			c-0.5-3.4,0.5-6.5,1.9-9.5c0.4-0.8,1.2-1.1,1.9-0.8c0.8,0.3,1,1.1,0.7,2c-0.5,1.5-1.3,2.9-1.5,4.4c-0.8,4.7,0.8,8.8,4.1,12.1
			c4.2,4.1,9.3,5.3,14.9,3.4c5.5-1.9,8.7-6,9.6-11.8c0.5-2.9-0.4-5.6-1.6-8.1c-2.2-4.8-5.1-9.1-8.3-13.3
			C109.2,51,107.7,49.1,106.1,47z"/>
		<path id="XMLID_36_" class="st1" d="M114.3,97.5c-1.8-1.1-3.7-0.8-5.2,0.3c-3.5,2.6-7,5.1-10.6,7.6c-0.5,0.3-1.1,0.5-1.7,0.6
			c-2.4,0.4-4.8,0.7-7.1,1.2c-0.8,0.2-1.5,0-2.2-0.4c-5.3-2.7-10.6-5.2-16.3-7c-1.8-0.6-3.8-0.9-5.6-1.2c-0.9-0.2-1.5-0.7-1.5-1.5
			c0-0.8,0.7-1.5,1.6-1.3c2,0.3,4,0.6,5.9,1.2c5.8,1.7,11.2,4.3,16.6,7c0.5,0.2,1.1,0.3,1.6,0.3c2.2-0.3,4.4-0.7,6.6-1.1
			c0.4-0.1,0.7-0.3,1-0.5c3.3-2.4,6.7-4.8,10-7.2c2.9-2.1,7-1.9,9.6,0.5c0.9,0.8,0.9,1.6,0.1,2.5c-4.9,5.2-10.4,9.7-15.8,14.3
			c-0.3,0.2-0.7,0.4-1.1,0.5c-4.2,0.9-8.4,1.9-12.5,2.8c-1,0.2-1.7-0.2-1.9-1c-0.2-0.8,0.3-1.6,1.3-1.8c3.8-0.9,7.6-1.7,11.4-2.6
			c0.7-0.2,1.5-0.5,2-1c4.3-3.7,8.8-7.3,12.8-11.4C113.5,97.8,113.9,97.7,114.3,97.5z"/>
		<path id="XMLID_35_" class="st1" d="M129.9,116.5c-1.6-1.6-3.4-2.3-5.4-2.2c-0.4,0-0.7,0.1-1.1,0.1c-1,0.1-1.6-0.3-1.8-1.1
			c-0.1-0.8,0.4-1.5,1.4-1.7c1.8-0.3,3.6-0.2,5.3,0.4c2.3,0.9,4,2.4,5.2,4.5c0.6,1.1,0.3,2.1-1,2.4c-8.1,1.9-16.3,3.8-24.4,5.8
			c-0.9,0.2-1.6-0.3-1.8-1c-0.2-0.8,0.3-1.6,1.3-1.8c5.6-1.3,11.3-2.7,16.9-4C126.2,117.4,128,116.9,129.9,116.5z"/>
		<path id="XMLID_34_" class="st1" d="M89,100c-0.4,0.5-0.6,1.1-1,1.2c-0.5,0.2-1.2,0.1-1.7-0.1c-1.7-1.2-3.3-2.4-4.9-3.7
			c-3.4-2.8-7.2-4.8-11.5-5.8c-1.1-0.3-1.6-1-1.4-1.9c0.3-0.9,1-1.2,2.1-0.9c4.2,1,8,2.8,11.4,5.4c1.9,1.5,3.9,3,5.8,4.5
			C88.2,99,88.5,99.5,89,100z"/>
		<path id="XMLID_14_" class="st1" d="M117.7,73.1c-0.2,3.4-1.8,6.4-4.8,8.7c-0.8,0.6-1.6,0.5-2.2-0.2c-0.5-0.7-0.4-1.5,0.4-2.1
			c2.3-1.8,3.6-4.2,3.7-7.1c0-1,0.7-1.6,1.5-1.5C117.3,70.9,117.8,71.6,117.7,73.1z"/>
		<path id="XMLID_13_" class="st1" d="M106.2,81.1c0.8,0,1.4,0.7,1.4,1.5c0,0.8-0.7,1.4-1.5,1.4c-0.8,0-1.4-0.7-1.4-1.5
			C104.7,81.8,105.4,81.1,106.2,81.1z"/>
		<path id="XMLID_12_" class="st1" d="M65.6,89.2c0,0.8-0.6,1.5-1.4,1.5c-0.8,0-1.5-0.6-1.5-1.4c0-0.9,0.6-1.5,1.4-1.5
			C65,87.8,65.6,88.4,65.6,89.2z"/>
		<path id="XMLID_11_" class="st1" d="M94.8,58.9c0.8,0,1.4,0.6,1.4,1.4c0,0.8-0.6,1.4-1.4,1.4c-0.8,0-1.4-0.6-1.4-1.4
			C93.4,59.5,94,58.9,94.8,58.9z"/>
	</g>
	<circle id="XMLID_9_" class="st2" cx="88.5" cy="88.5" r="86.4"/>
</g>
</svg>
